<svg id="PCHC_Logo_White" data-name="PCHC Logo White" xmlns="http://www.w3.org/2000/svg" viewBox="0 0 194.63 90"><defs><style>.cls-1{fill:#fff;}</style></defs><title>Untitled-1</title><g id="PCHC"><path id="C" class="cls-1" d="M167.33,66.12a12.8,12.8,0,0,0-.43,2.27A24,24,0,0,1,156,70.58a24.5,24.5,0,0,1-8.3-1.31,17.6,17.6,0,0,1-6.2-3.68A15.89,15.89,0,0,1,137.64,60a18.42,18.42,0,0,1-1.33-7A23,23,0,0,1,138,43.48a17.21,17.21,0,0,1,4.65-6.3,18.44,18.44,0,0,1,6.75-3.55,28.66,28.66,0,0,1,8.06-1.12,21.6,21.6,0,0,1,2.94.21q1.55,0.21,3,.56a25.3,25.3,0,0,1,2.75.83,13.82,13.82,0,0,1,2.22,1,16.34,16.34,0,0,0-.83,2.7,20.87,20.87,0,0,0-.4,2.75h-0.75a13.19,13.19,0,0,0-4.17-3.66,10.88,10.88,0,0,0-5-1.09,10.5,10.5,0,0,0-4.3,1A11.51,11.51,0,0,0,149,39.72a15.1,15.1,0,0,0-2.86,5,21.93,21.93,0,0,0-1.09,7.34,19.59,19.59,0,0,0,1.12,7,13.94,13.94,0,0,0,2.91,4.75,11.09,11.09,0,0,0,4.06,2.7,12.84,12.84,0,0,0,4.56.86,12.05,12.05,0,0,0,2.62-.3,17.19,17.19,0,0,0,2.62-.8,13.84,13.84,0,0,0,2.43-1.26,11,11,0,0,0,2-1.65l0.69,0.43Q167.65,65,167.33,66.12Z"/><path id="H" class="cls-1" d="M116.39,52.08q-2-.08-4.06-0.08t-4.06.05q-2,.05-4.06.16v3q0,4.43.11,7.87t0.32,6.76a16.68,16.68,0,0,0-2-.11H97.86a16.72,16.72,0,0,0-2,.11q0.21-3.31.32-6.76t0.11-7.87V48q0-4.43-.11-7.88T95.88,33.2c0.61,0.07,1.26.13,2,.19s1.51,0.08,2.4.08,1.69,0,2.4-.08,1.37-.11,2-0.19q-0.27,3.47-.35,6.86t-0.08,7.82q1.39,0.05,3.34.08t4.83,0q2.89,0,4.7,0t3.36-.08q0-4.43-.11-7.82T120,33.2q0.91,0.11,2,.19c0.71,0.05,1.51.08,2.4,0.08s1.69,0,2.4-.08,1.37-.11,2-0.19q-0.21,3.47-.32,6.91T128.35,48v7.26q0,4.43.11,7.87t0.32,6.76a16.68,16.68,0,0,0-2-.11H122a16.64,16.64,0,0,0-2,.11q0.21-3.31.32-6.76t0.11-7.87v-3Z"/><path id="C-2" data-name="C" class="cls-1" d="M87.5,66.12a13.05,13.05,0,0,0-.43,2.27,24,24,0,0,1-10.89,2.19,24.5,24.5,0,0,1-8.3-1.31,17.56,17.56,0,0,1-6.19-3.68A15.82,15.82,0,0,1,57.82,60a18.37,18.37,0,0,1-1.34-7,23,23,0,0,1,1.73-9.42,17.24,17.24,0,0,1,4.65-6.3,18.45,18.45,0,0,1,6.75-3.55,28.65,28.65,0,0,1,8.06-1.12,21.59,21.59,0,0,1,2.93.21q1.55,0.21,3,.56a25.31,25.31,0,0,1,2.75.83,13.66,13.66,0,0,1,2.21,1,16.9,16.9,0,0,0-.83,2.7,20.87,20.87,0,0,0-.4,2.75H86.59a13.19,13.19,0,0,0-4.17-3.66,10.88,10.88,0,0,0-5-1.09,10.5,10.5,0,0,0-4.3,1,11.51,11.51,0,0,0-3.92,2.94,15.1,15.1,0,0,0-2.86,5,21.93,21.93,0,0,0-1.09,7.34,19.59,19.59,0,0,0,1.12,7,13.9,13.9,0,0,0,2.91,4.75,11.08,11.08,0,0,0,4.06,2.7,12.83,12.83,0,0,0,4.56.86,12.05,12.05,0,0,0,2.62-.3,17.08,17.08,0,0,0,2.62-.8,13.74,13.74,0,0,0,2.43-1.26,11,11,0,0,0,2-1.65l0.69,0.43Q87.82,65,87.5,66.12Z"/><path id="P" class="cls-1" d="M27.75,40.12q-0.11-3.44-.32-6.91,0.91,0.11,2,.19c0.71,0.05,1.51.08,2.4,0.08q1.87,0,3.87-.13c1.34-.09,2.64-0.13,3.93-0.13a24.41,24.41,0,0,1,5.93.56,8.24,8.24,0,0,1,3.36,1.63,8.84,8.84,0,0,1,2.51,3.09,9.62,9.62,0,0,1,.8,4.11,12.4,12.4,0,0,1-1,5.23,9.06,9.06,0,0,1-2.86,3.55,12.37,12.37,0,0,1-4.35,2,22.24,22.24,0,0,1-5.5.64H35.76q0,4,.08,8t0.35,7.88a16.72,16.72,0,0,0-2-.11H29.41a16.64,16.64,0,0,0-2,.11q0.21-3.31.32-6.76t0.11-7.87V48Q27.86,43.56,27.75,40.12ZM43.32,40a5.83,5.83,0,0,0-1.23-2.22,4.54,4.54,0,0,0-1.82-1.2,6.34,6.34,0,0,0-2.16-.37H36.35a2,2,0,0,0-.48.05q-0.05,3.84-.08,7.56t0,7.45A14.81,14.81,0,0,0,38.51,51a6.57,6.57,0,0,0,2.59-1.09A6,6,0,0,0,43,47.56a9.53,9.53,0,0,0,.75-4.11A11.07,11.07,0,0,0,43.32,40Z"/></g><path id="Swoosh" class="cls-1" d="M97.31,0C43.65,0,0,23.21,0,51.74,0,66,11.77,79.9,32.32,89.9h0C14.94,80.76,9.7,66,9.7,53,9.7,27.37,47.36,8.06,97.31,8.06S184.93,27.37,184.93,53c0,13-5.52,27.81-22.93,36.93L162.11,90c20.68-10,32.52-23.93,32.52-38.26C194.63,23.21,151,0,97.31,0Z"/></svg>